<svg width="133" height="43" viewBox="0 0 133 43" fill="none" xmlns="http://www.w3.org/2000/svg">
<path d="M6.432 18.136V22.312C6.432 22.952 6.496 23.424 6.624 23.728C6.768 24.016 7.008 24.208 7.344 24.304C7.696 24.4 8.248 24.456 9 24.472V25C7.032 24.952 5.568 24.928 4.608 24.928C3.808 24.928 2.8 24.944 1.584 24.976L0.816 25V24.52C1.344 24.488 1.728 24.424 1.968 24.328C2.224 24.232 2.392 24.048 2.472 23.776C2.568 23.504 2.616 23.064 2.616 22.456V10.552C2.616 9.944 2.568 9.504 2.472 9.232C2.392 8.96 2.224 8.776 1.968 8.68C1.728 8.584 1.344 8.52 0.816 8.488V8.008C1.632 8.056 2.848 8.08 4.464 8.08L7.128 8.056C7.448 8.04 7.816 8.032 8.232 8.032C10.392 8.032 12.04 8.464 13.176 9.328C14.312 10.176 14.88 11.32 14.88 12.76C14.88 13.64 14.656 14.488 14.208 15.304C13.76 16.104 13 16.776 11.928 17.32C10.872 17.864 9.464 18.136 7.704 18.136H6.432ZM7.92 8.488C7.488 8.488 7.168 8.544 6.96 8.656C6.768 8.768 6.632 8.968 6.552 9.256C6.472 9.544 6.432 9.976 6.432 10.552V17.656H7.464C8.76 17.656 9.656 17.24 10.152 16.408C10.648 15.576 10.896 14.448 10.896 13.024C10.896 11.472 10.664 10.328 10.2 9.592C9.752 8.856 8.992 8.488 7.92 8.488ZM30.4258 21.352C30.4258 22.824 30.4818 24.04 30.5938 25C29.5058 24.952 27.6738 24.928 25.0978 24.928C21.6098 24.928 19.0018 24.952 17.2738 25V24.52C17.8018 24.488 18.1858 24.424 18.4258 24.328C18.6818 24.232 18.8498 24.048 18.9298 23.776C19.0258 23.504 19.0738 23.064 19.0738 22.456V10.552C19.0738 9.944 19.0258 9.504 18.9298 9.232C18.8498 8.96 18.6818 8.776 18.4258 8.68C18.1858 8.584 17.8018 8.52 17.2738 8.488V8.008C19.0018 8.056 21.6098 8.08 25.0978 8.08C27.4498 8.08 29.1218 8.056 30.1138 8.008C30.0018 9.336 29.9458 10.52 29.9458 11.56C29.9458 12.264 29.9698 12.808 30.0178 13.192H29.4658C29.2258 11.48 28.7938 10.28 28.1698 9.592C27.5458 8.904 26.6658 8.56 25.5298 8.56H24.5458C24.0498 8.56 23.6898 8.6 23.4658 8.68C23.2418 8.76 23.0898 8.92 23.0098 9.16C22.9298 9.384 22.8898 9.752 22.8898 10.264V16.216H23.6578C24.5058 16.216 25.1458 15.904 25.5778 15.28C26.0258 14.656 26.3378 13.912 26.5138 13.048H27.0658C27.0178 13.72 26.9938 14.472 26.9938 15.304V16.456C26.9938 17.272 27.0418 18.408 27.1378 19.864H26.5858C26.2498 17.752 25.2738 16.696 23.6578 16.696H22.8898V22.744C22.8898 23.256 22.9298 23.632 23.0098 23.872C23.0898 24.096 23.2418 24.248 23.4658 24.328C23.6898 24.408 24.0498 24.448 24.5458 24.448H25.7218C26.8578 24.448 27.7698 24.064 28.4578 23.296C29.1618 22.512 29.6578 21.192 29.9458 19.336H30.4978C30.4498 19.864 30.4258 20.536 30.4258 21.352ZM48.2768 8.008C48.1648 9.528 48.1088 10.888 48.1088 12.088C48.1088 12.84 48.1328 13.448 48.1808 13.912H47.6288C47.2448 11.944 46.7168 10.56 46.0448 9.76C45.3888 8.96 44.4848 8.56 43.3328 8.56H42.7808V22.264C42.7808 22.936 42.8448 23.424 42.9728 23.728C43.1168 24.032 43.3568 24.24 43.6928 24.352C44.0448 24.448 44.5968 24.504 45.3488 24.52V25C43.3328 24.952 41.8128 24.928 40.7888 24.928C39.7808 24.928 38.3168 24.952 36.3968 25V24.52C37.1488 24.504 37.6928 24.448 38.0288 24.352C38.3808 24.24 38.6208 24.032 38.7488 23.728C38.8928 23.424 38.9648 22.936 38.9648 22.264V8.56H38.4368C37.6688 8.56 37.0128 8.728 36.4688 9.064C35.9408 9.4 35.4848 9.96 35.1008 10.744C34.7168 11.512 34.3888 12.568 34.1168 13.912H33.5648C33.6128 13.448 33.6368 12.84 33.6368 12.088C33.6368 10.888 33.5808 9.528 33.4688 8.008C34.9248 8.056 37.3968 8.08 40.8848 8.08C44.3728 8.08 46.8368 8.056 48.2768 8.008ZM67.188 23.944C66.756 24.44 66.292 24.792 65.796 25C65.3 25.224 64.7 25.336 63.996 25.336C63.068 25.336 62.332 25.144 61.788 24.76C61.26 24.36 60.916 23.688 60.756 22.744L60.324 20.344C60.116 19.176 59.86 18.32 59.556 17.776C59.268 17.216 58.78 16.936 58.092 16.936H56.532V22.456C56.532 23.064 56.572 23.504 56.652 23.776C56.748 24.048 56.916 24.232 57.156 24.328C57.396 24.424 57.788 24.488 58.332 24.52V25C57.468 24.952 56.26 24.928 54.708 24.928C52.996 24.928 51.732 24.952 50.916 25V24.52C51.444 24.488 51.828 24.424 52.068 24.328C52.324 24.232 52.492 24.048 52.572 23.776C52.668 23.504 52.716 23.064 52.716 22.456V10.552C52.716 9.944 52.668 9.504 52.572 9.232C52.492 8.96 52.324 8.776 52.068 8.68C51.828 8.584 51.444 8.52 50.916 8.488V8.008C51.732 8.056 52.948 8.08 54.564 8.08L57.228 8.056C57.548 8.04 57.916 8.032 58.332 8.032C60.54 8.032 62.196 8.392 63.3 9.112C64.42 9.832 64.98 10.864 64.98 12.208C64.98 13.344 64.564 14.344 63.732 15.208C62.9 16.072 61.524 16.616 59.604 16.84C61.044 16.968 62.116 17.28 62.82 17.776C63.524 18.272 63.98 19.016 64.188 20.008L64.74 22.48C64.868 23.12 65.012 23.568 65.172 23.824C65.348 24.08 65.588 24.208 65.892 24.208C66.084 24.192 66.244 24.144 66.372 24.064C66.516 23.984 66.676 23.848 66.852 23.656L67.188 23.944ZM58.02 8.488C57.588 8.488 57.268 8.544 57.06 8.656C56.868 8.768 56.732 8.968 56.652 9.256C56.572 9.544 56.532 9.976 56.532 10.552V16.456H57.564C58.876 16.456 59.772 16.112 60.252 15.424C60.748 14.72 60.996 13.736 60.996 12.472C60.996 11.16 60.764 10.168 60.3 9.496C59.836 8.824 59.076 8.488 58.02 8.488ZM77.4452 7.672C79.1412 7.672 80.6212 8.016 81.8852 8.704C83.1652 9.392 84.1572 10.392 84.8612 11.704C85.5652 13 85.9172 14.552 85.9172 16.36C85.9172 18.12 85.5572 19.68 84.8372 21.04C84.1172 22.4 83.1092 23.456 81.8132 24.208C80.5332 24.96 79.0692 25.336 77.4212 25.336C75.7252 25.336 74.2372 24.992 72.9572 24.304C71.6932 23.616 70.7092 22.624 70.0052 21.328C69.3012 20.016 68.9492 18.456 68.9492 16.648C68.9492 14.888 69.3092 13.328 70.0292 11.968C70.7492 10.608 71.7492 9.552 73.0292 8.8C74.3252 8.048 75.7972 7.672 77.4452 7.672ZM77.3492 8.104C76.4692 8.104 75.6932 8.464 75.0212 9.184C74.3492 9.888 73.8292 10.88 73.4612 12.16C73.1092 13.44 72.9332 14.904 72.9332 16.552C72.9332 18.216 73.1332 19.68 73.5332 20.944C73.9492 22.208 74.5012 23.184 75.1892 23.872C75.8932 24.56 76.6692 24.904 77.5172 24.904C78.3972 24.904 79.1732 24.552 79.8452 23.848C80.5172 23.128 81.0292 22.128 81.3812 20.848C81.7492 19.568 81.9332 18.104 81.9332 16.456C81.9332 14.792 81.7252 13.328 81.3092 12.064C80.9092 10.8 80.3572 9.824 79.6532 9.136C78.9652 8.448 78.1972 8.104 77.3492 8.104ZM102.057 8.08C102.793 8.08 103.401 8.056 103.881 8.008V8.488C103.481 8.632 103.089 8.936 102.705 9.4C102.321 9.864 101.977 10.512 101.673 11.344L96.6094 25.048C96.4334 25.032 96.1534 25.024 95.7694 25.024C95.4014 25.024 95.1294 25.032 94.9534 25.048L88.8334 10.024C88.6254 9.496 88.3854 9.112 88.1134 8.872C87.8414 8.632 87.5774 8.504 87.3214 8.488V8.008C88.2814 8.056 89.4974 8.08 90.9694 8.08C92.6174 8.08 93.8334 8.056 94.6174 8.008V8.488C94.0094 8.52 93.5774 8.592 93.3214 8.704C93.0654 8.816 92.9374 9.04 92.9374 9.376C92.9374 9.648 93.0334 10.024 93.2254 10.504L97.4494 21.256L100.401 13.288C100.849 12.056 101.073 11.08 101.073 10.36C101.073 9.72 100.897 9.256 100.545 8.968C100.209 8.68 99.7134 8.52 99.0574 8.488V8.008C100.145 8.056 101.145 8.08 102.057 8.08ZM113.073 8.488C112.529 8.52 112.137 8.584 111.897 8.68C111.657 8.776 111.489 8.96 111.393 9.232C111.313 9.504 111.273 9.944 111.273 10.552V22.456C111.273 23.064 111.313 23.504 111.393 23.776C111.489 24.048 111.657 24.232 111.897 24.328C112.137 24.424 112.529 24.488 113.073 24.52V25C112.209 24.952 111.001 24.928 109.449 24.928C107.737 24.928 106.473 24.952 105.657 25V24.52C106.185 24.488 106.569 24.424 106.809 24.328C107.065 24.232 107.233 24.048 107.313 23.776C107.409 23.504 107.457 23.064 107.457 22.456V10.552C107.457 9.944 107.409 9.504 107.313 9.232C107.233 8.96 107.065 8.776 106.809 8.68C106.569 8.584 106.185 8.52 105.657 8.488V8.008C106.473 8.056 107.737 8.08 109.449 8.08C111.001 8.08 112.209 8.056 113.073 8.008V8.488ZM124.405 7.672C125.365 7.672 126.181 7.808 126.853 8.08C127.525 8.352 128.181 8.736 128.821 9.232C128.997 9.376 129.149 9.448 129.277 9.448C129.597 9.448 129.805 8.968 129.901 8.008H130.453C130.389 9.096 130.357 11.032 130.357 13.816H129.805C129.661 12.632 129.469 11.728 129.229 11.104C128.989 10.48 128.581 9.936 128.005 9.472C127.605 9.088 127.141 8.8 126.613 8.608C126.085 8.4 125.533 8.296 124.957 8.296C123.341 8.296 122.141 9.088 121.357 10.672C120.573 12.24 120.181 14.2 120.181 16.552C120.181 18.888 120.589 20.84 121.405 22.408C122.221 23.976 123.437 24.76 125.053 24.76C125.597 24.76 126.133 24.664 126.661 24.472C127.205 24.264 127.661 23.968 128.029 23.584C128.621 23.136 129.029 22.576 129.253 21.904C129.493 21.232 129.677 20.248 129.805 18.952H130.357C130.357 21.848 130.389 23.864 130.453 25H129.901C129.853 24.488 129.781 24.128 129.685 23.92C129.605 23.696 129.485 23.584 129.325 23.584C129.197 23.584 129.029 23.648 128.821 23.776C128.101 24.288 127.413 24.68 126.757 24.952C126.101 25.208 125.309 25.336 124.381 25.336C122.685 25.336 121.197 24.992 119.917 24.304C118.653 23.616 117.669 22.624 116.965 21.328C116.261 20.016 115.909 18.456 115.909 16.648C115.909 14.888 116.269 13.328 116.989 11.968C117.709 10.608 118.709 9.552 119.989 8.8C121.285 8.048 122.757 7.672 124.405 7.672ZM126.109 2.584C126.333 2.456 126.581 2.392 126.853 2.392C127.109 2.392 127.341 2.456 127.549 2.584C127.773 2.712 127.941 2.888 128.053 3.112C128.149 3.272 128.197 3.456 128.197 3.664C128.197 3.904 128.125 4.136 127.981 4.36C127.837 4.568 127.637 4.744 127.381 4.888C127.141 5.016 126.861 5.136 126.541 5.248C126.221 5.344 125.877 5.432 125.509 5.512C125.397 5.544 125.037 5.64 124.429 5.8C123.837 5.96 123.157 6.184 122.389 6.472L122.221 6.184C123.005 5.528 123.797 4.768 124.597 3.904C124.949 3.536 125.229 3.264 125.437 3.088C125.645 2.896 125.869 2.728 126.109 2.584Z" fill="white"/>
<path d="M37.6189 33.12C37.3789 33.1333 37.2022 33.16 37.0889 33.2C36.9822 33.24 36.9089 33.3167 36.8689 33.43C36.8289 33.5433 36.8089 33.7267 36.8089 33.98V39.06C36.8089 39.2733 36.8256 39.43 36.8589 39.53C36.8922 39.6233 36.9489 39.6867 37.0289 39.72C37.1156 39.7533 37.2522 39.77 37.4389 39.77H37.9289C38.3822 39.77 38.7722 39.5667 39.0989 39.16C39.4322 38.7533 39.6489 38.2133 39.7489 37.54H39.9789C39.9589 37.7667 39.9489 38.06 39.9489 38.42C39.9489 39.06 39.9722 39.5867 40.0189 40C39.5656 39.98 38.8022 39.97 37.7289 39.97C36.2756 39.97 35.1889 39.98 34.4689 40V39.8C34.6889 39.7867 34.8489 39.76 34.9489 39.72C35.0556 39.68 35.1256 39.6033 35.1589 39.49C35.1989 39.3767 35.2189 39.1933 35.2189 38.94V33.98C35.2189 33.7267 35.1989 33.5433 35.1589 33.43C35.1256 33.3167 35.0556 33.24 34.9489 33.2C34.8489 33.16 34.6889 33.1333 34.4689 33.12V32.92C34.8089 32.94 35.3356 32.95 36.0489 32.95C36.7289 32.95 37.2522 32.94 37.6189 32.92V33.12ZM46.8522 39.16C46.9389 39.38 47.0389 39.54 47.1522 39.64C47.2655 39.74 47.3755 39.7933 47.4822 39.8V40C47.0822 39.98 46.5755 39.97 45.9622 39.97C45.2822 39.97 44.7755 39.98 44.4422 40V39.8C44.6955 39.7867 44.8755 39.7567 44.9822 39.71C45.0889 39.6567 45.1422 39.5667 45.1422 39.44C45.1422 39.32 45.1022 39.16 45.0222 38.96L44.4222 37.32H42.2422L41.9822 38.01C41.7955 38.49 41.7022 38.86 41.7022 39.12C41.7022 39.3667 41.7755 39.54 41.9222 39.64C42.0755 39.7333 42.2989 39.7867 42.5922 39.8V40C42.1389 39.98 41.7255 39.97 41.3522 39.97C41.0455 39.97 40.7922 39.98 40.5922 40V39.8C40.9189 39.74 41.2055 39.39 41.4522 38.75L43.7322 32.9C43.8055 32.9067 43.9222 32.91 44.0822 32.91C44.2422 32.91 44.3555 32.9067 44.4222 32.9L46.8522 39.16ZM44.3522 37.12L43.3622 34.42L42.3222 37.12H44.3522ZM56.1985 32.95C56.5118 32.95 56.7685 32.94 56.9685 32.92V33.12C56.8018 33.1867 56.6385 33.3167 56.4785 33.51C56.3252 33.6967 56.1952 33.9633 56.0885 34.31L54.3285 40.02C54.2552 40.0133 54.1385 40.01 53.9785 40.01C53.8185 40.01 53.7018 40.0133 53.6285 40.02L52.1585 35.56L50.6785 40.02C50.6052 40.0133 50.4885 40.01 50.3285 40.01C50.1685 40.01 50.0518 40.0133 49.9785 40.02L47.7385 33.76C47.6585 33.54 47.5618 33.38 47.4485 33.28C47.3352 33.18 47.2218 33.1267 47.1085 33.12V32.92C47.5085 32.94 48.0052 32.95 48.5985 32.95C49.1585 32.95 49.5685 32.94 49.8285 32.92V33.12C49.5952 33.1533 49.4785 33.2833 49.4785 33.51C49.4785 33.6167 49.5085 33.7667 49.5685 33.96L51.0285 38.19L52.0385 35.21L51.5285 33.66C51.4618 33.4667 51.3818 33.3333 51.2885 33.26C51.2018 33.18 51.0985 33.1333 50.9785 33.12V32.92C51.3518 32.94 51.8285 32.95 52.4085 32.95C53.0618 32.95 53.5418 32.94 53.8485 32.92V33.12C53.6085 33.1267 53.4352 33.1567 53.3285 33.21C53.2218 33.2567 53.1685 33.35 53.1685 33.49C53.1685 33.61 53.2018 33.7667 53.2685 33.96L54.6385 38.14L55.5885 35.12C55.7418 34.62 55.8185 34.2333 55.8185 33.96C55.8185 33.6733 55.7452 33.4667 55.5985 33.34C55.4585 33.2067 55.2452 33.1333 54.9585 33.12V32.92C55.4118 32.94 55.8252 32.95 56.1985 32.95ZM64.0833 32.78C64.7899 32.78 65.4066 32.9233 65.9333 33.21C66.4666 33.4967 66.8799 33.9133 67.1733 34.46C67.4666 35 67.6133 35.6467 67.6133 36.4C67.6133 37.1333 67.4633 37.7833 67.1633 38.35C66.8633 38.9167 66.4433 39.3567 65.9033 39.67C65.3699 39.9833 64.7599 40.14 64.0733 40.14C63.3666 40.14 62.7466 39.9967 62.2133 39.71C61.6866 39.4233 61.2766 39.01 60.9833 38.47C60.6899 37.9233 60.5433 37.2733 60.5433 36.52C60.5433 35.7867 60.6933 35.1367 60.9933 34.57C61.2933 34.0033 61.7099 33.5633 62.2433 33.25C62.7833 32.9367 63.3966 32.78 64.0833 32.78ZM64.0433 32.96C63.6766 32.96 63.3533 33.11 63.0733 33.41C62.7933 33.7033 62.5766 34.1167 62.4233 34.65C62.2766 35.1833 62.2033 35.7933 62.2033 36.48C62.2033 37.1733 62.2866 37.7833 62.4533 38.31C62.6266 38.8367 62.8566 39.2433 63.1433 39.53C63.4366 39.8167 63.7599 39.96 64.1133 39.96C64.4799 39.96 64.8033 39.8133 65.0833 39.52C65.3633 39.22 65.5766 38.8033 65.7233 38.27C65.8766 37.7367 65.9533 37.1267 65.9533 36.44C65.9533 35.7467 65.8666 35.1367 65.6933 34.61C65.5266 34.0833 65.2966 33.6767 65.0033 33.39C64.7166 33.1033 64.3966 32.96 64.0433 32.96ZM74.1548 32.92C74.1082 33.4867 74.0848 33.9933 74.0848 34.44C74.0848 34.7533 74.0948 35.0067 74.1148 35.2H73.8848C73.7515 34.4467 73.5515 33.9167 73.2848 33.61C73.0182 33.3033 72.6448 33.15 72.1648 33.15H71.8348C71.6282 33.15 71.4782 33.1667 71.3848 33.2C71.2915 33.2333 71.2282 33.3 71.1948 33.4C71.1615 33.4933 71.1448 33.6467 71.1448 33.86V36.38H71.4948C71.8482 36.38 72.1148 36.25 72.2948 35.99C72.4815 35.73 72.6115 35.42 72.6848 35.06H72.9148C72.8948 35.34 72.8848 35.6533 72.8848 36V36.48C72.8848 36.82 72.9048 37.2933 72.9448 37.9H72.7148C72.5748 37.02 72.1682 36.58 71.4948 36.58H71.1448V38.88C71.1448 39.1467 71.1715 39.3433 71.2248 39.47C71.2848 39.59 71.3848 39.67 71.5248 39.71C71.6715 39.75 71.9015 39.7733 72.2148 39.78V40C71.3948 39.98 70.7848 39.97 70.3848 39.97C70.0515 39.97 69.6315 39.9767 69.1248 39.99L68.8048 40V39.8C69.0248 39.7867 69.1848 39.76 69.2848 39.72C69.3915 39.68 69.4615 39.6033 69.4948 39.49C69.5348 39.3767 69.5548 39.1933 69.5548 38.94V33.98C69.5548 33.7267 69.5348 33.5433 69.4948 33.43C69.4615 33.3167 69.3915 33.24 69.2848 33.2C69.1848 33.16 69.0248 33.1333 68.8048 33.12V32.92C69.5248 32.94 70.6115 32.95 72.0648 32.95C73.0448 32.95 73.7415 32.94 74.1548 32.92ZM80.5728 32.92C80.5261 33.4867 80.5028 33.9933 80.5028 34.44C80.5028 34.7533 80.5128 35.0067 80.5328 35.2H80.3028C80.1695 34.4467 79.9695 33.9167 79.7028 33.61C79.4361 33.3033 79.0628 33.15 78.5828 33.15H78.2528C78.0461 33.15 77.8961 33.1667 77.8028 33.2C77.7095 33.2333 77.6461 33.3 77.6128 33.4C77.5795 33.4933 77.5628 33.6467 77.5628 33.86V36.38H77.9128C78.2661 36.38 78.5328 36.25 78.7128 35.99C78.8995 35.73 79.0295 35.42 79.1028 35.06H79.3328C79.3128 35.34 79.3028 35.6533 79.3028 36V36.48C79.3028 36.82 79.3228 37.2933 79.3628 37.9H79.1328C78.9928 37.02 78.5861 36.58 77.9128 36.58H77.5628V38.88C77.5628 39.1467 77.5895 39.3433 77.6428 39.47C77.7028 39.59 77.8028 39.67 77.9428 39.71C78.0895 39.75 78.3195 39.7733 78.6328 39.78V40C77.8128 39.98 77.2028 39.97 76.8028 39.97C76.4695 39.97 76.0495 39.9767 75.5428 39.99L75.2228 40V39.8C75.4428 39.7867 75.6028 39.76 75.7028 39.72C75.8095 39.68 75.8795 39.6033 75.9128 39.49C75.9528 39.3767 75.9728 39.1933 75.9728 38.94V33.98C75.9728 33.7267 75.9528 33.5433 75.9128 33.43C75.8795 33.3167 75.8095 33.24 75.7028 33.2C75.6028 33.16 75.4428 33.1333 75.2228 33.12V32.92C75.9428 32.94 77.0295 32.95 78.4828 32.95C79.4628 32.95 80.1595 32.94 80.5728 32.92ZM84.7308 33.12C84.5041 33.1333 84.3408 33.16 84.2408 33.2C84.1408 33.24 84.0708 33.3167 84.0308 33.43C83.9974 33.5433 83.9808 33.7267 83.9808 33.98V38.94C83.9808 39.1933 83.9974 39.3767 84.0308 39.49C84.0708 39.6033 84.1408 39.68 84.2408 39.72C84.3408 39.76 84.5041 39.7867 84.7308 39.8V40C84.3708 39.98 83.8674 39.97 83.2208 39.97C82.5074 39.97 81.9808 39.98 81.6408 40V39.8C81.8608 39.7867 82.0208 39.76 82.1208 39.72C82.2274 39.68 82.2974 39.6033 82.3308 39.49C82.3708 39.3767 82.3908 39.1933 82.3908 38.94V33.98C82.3908 33.7267 82.3708 33.5433 82.3308 33.43C82.2974 33.3167 82.2274 33.24 82.1208 33.2C82.0208 33.16 81.8608 33.1333 81.6408 33.12V32.92C81.9808 32.94 82.5074 32.95 83.2208 32.95C83.8674 32.95 84.3708 32.94 84.7308 32.92V33.12ZM89.4524 32.78C89.8524 32.78 90.1924 32.8367 90.4724 32.95C90.7524 33.0633 91.0258 33.2233 91.2924 33.43C91.3658 33.49 91.4291 33.52 91.4824 33.52C91.6158 33.52 91.7024 33.32 91.7424 32.92H91.9724C91.9458 33.3733 91.9324 34.18 91.9324 35.34H91.7024C91.6424 34.8467 91.5624 34.47 91.4624 34.21C91.3624 33.95 91.1924 33.7233 90.9524 33.53C90.7858 33.37 90.5924 33.25 90.3724 33.17C90.1524 33.0833 89.9224 33.04 89.6824 33.04C89.0091 33.04 88.5091 33.37 88.1824 34.03C87.8558 34.6833 87.6924 35.5 87.6924 36.48C87.6924 37.4533 87.8624 38.2667 88.2024 38.92C88.5424 39.5733 89.0491 39.9 89.7224 39.9C89.9491 39.9 90.1724 39.86 90.3924 39.78C90.6191 39.6933 90.8091 39.57 90.9624 39.41C91.2091 39.2233 91.3791 38.99 91.4724 38.71C91.5724 38.43 91.6491 38.02 91.7024 37.48H91.9324C91.9324 38.6867 91.9458 39.5267 91.9724 40H91.7424C91.7224 39.7867 91.6924 39.6367 91.6524 39.55C91.6191 39.4567 91.5691 39.41 91.5024 39.41C91.4491 39.41 91.3791 39.4367 91.2924 39.49C90.9924 39.7033 90.7058 39.8667 90.4324 39.98C90.1591 40.0867 89.8291 40.14 89.4424 40.14C88.7358 40.14 88.1158 39.9967 87.5824 39.71C87.0558 39.4233 86.6458 39.01 86.3524 38.47C86.0591 37.9233 85.9124 37.2733 85.9124 36.52C85.9124 35.7867 86.0624 35.1367 86.3624 34.57C86.6624 34.0033 87.0791 33.5633 87.6124 33.25C88.1524 32.9367 88.7658 32.78 89.4524 32.78ZM98.8532 38.48C98.8532 39.0933 98.8765 39.6 98.9232 40C98.4699 39.98 97.7065 39.97 96.6332 39.97C95.1799 39.97 94.0932 39.98 93.3732 40V39.8C93.5932 39.7867 93.7532 39.76 93.8532 39.72C93.9599 39.68 94.0299 39.6033 94.0632 39.49C94.1032 39.3767 94.1232 39.1933 94.1232 38.94V33.98C94.1232 33.7267 94.1032 33.5433 94.0632 33.43C94.0299 33.3167 93.9599 33.24 93.8532 33.2C93.7532 33.16 93.5932 33.1333 93.3732 33.12V32.92C94.0932 32.94 95.1799 32.95 96.6332 32.95C97.6132 32.95 98.3099 32.94 98.7232 32.92C98.6765 33.4733 98.6532 33.9667 98.6532 34.4C98.6532 34.6933 98.6632 34.92 98.6832 35.08H98.4532C98.3532 34.3667 98.1732 33.8667 97.9132 33.58C97.6532 33.2933 97.2865 33.15 96.8132 33.15H96.4032C96.1965 33.15 96.0465 33.1667 95.9532 33.2C95.8599 33.2333 95.7965 33.3 95.7632 33.4C95.7299 33.4933 95.7132 33.6467 95.7132 33.86V36.34H96.0332C96.3865 36.34 96.6532 36.21 96.8332 35.95C97.0199 35.69 97.1499 35.38 97.2232 35.02H97.4532C97.4332 35.3 97.4232 35.6133 97.4232 35.96V36.44C97.4232 36.78 97.4432 37.2533 97.4832 37.86H97.2532C97.1132 36.98 96.7065 36.54 96.0332 36.54H95.7132V39.06C95.7132 39.2733 95.7299 39.43 95.7632 39.53C95.7965 39.6233 95.8599 39.6867 95.9532 39.72C96.0465 39.7533 96.1965 39.77 96.4032 39.77H96.8932C97.3665 39.77 97.7465 39.61 98.0332 39.29C98.3265 38.9633 98.5332 38.4133 98.6532 37.64H98.8832C98.8632 37.86 98.8532 38.14 98.8532 38.48Z" fill="white"/>
<path d="M0 36H32V37H0V36Z" fill="white"/>
<path d="M102 36H133V37H102V36Z" fill="white"/>
</svg>
